<?xml version="1.0" encoding="UTF-8" standalone="no"?>
<svg width="24px" height="25px" viewBox="0 0 24 25" version="1.1" xmlns="http://www.w3.org/2000/svg" xmlns:xlink="http://www.w3.org/1999/xlink" xmlns:sketch="http://www.bohemiancoding.com/sketch/ns">
    <!-- Generator: Sketch 3.3.3 (12072) - http://www.bohemiancoding.com/sketch -->
    <title>Gear</title>
    <desc>Created with Sketch.</desc>
    <defs></defs>
    <g id="Page-1" stroke="none" stroke-width="1" fill="none" fill-rule="evenodd" sketch:type="MSPage">
        <g id="primary-icons" sketch:type="MSArtboardGroup" transform="translate(-676.000000, -188.000000)" fill="#000000" opacity="0.8">
            <g id="Group" sketch:type="MSLayerGroup" transform="translate(112.000000, 183.000000)">
                <path d="M582.385864,7.04671011 C582.418736,6.95796858 582.381323,6.8486229 582.298292,6.80014048 L581.701708,6.45178835 C581.620471,6.40435324 581.506293,6.42526443 581.446786,6.49837159 L580.53786,7.61501164 C580.478307,7.68817397 580.358252,7.71731304 580.274083,7.68193404 L579.587918,7.39351529 C579.501791,7.35731318 579.439303,7.25148938 579.448331,7.15730996 L579.586231,5.7188117 C579.595266,5.6245612 579.531139,5.52879307 579.43853,5.50369673 L578.773127,5.3233764 C578.682519,5.29882218 578.577625,5.34881456 578.538906,5.43489243 L577.947502,6.74964735 C577.908753,6.83579017 577.80021,6.8953828 577.709765,6.88337518 L576.972432,6.78548599 C576.879883,6.77319901 576.792371,6.6874743 576.776996,6.59417174 L576.542147,5.16906672 C576.52676,5.07569375 576.440313,5 576.344438,5 L575.655562,5 C575.561758,5 575.473218,5.07582736 575.45783,5.16920777 L575.222785,6.59550175 C575.207385,6.68895261 575.117868,6.7750217 575.027537,6.78711406 L574.291137,6.88569405 C574.198704,6.89806774 574.092284,6.8380947 574.053505,6.75188582 L573.461201,5.43512982 C573.422393,5.34885589 573.319482,5.29828005 573.226873,5.3233764 L572.56147,5.50369673 C572.470862,5.52825095 572.404748,5.62470475 572.413785,5.71897343 L572.551815,7.158835 C572.560859,7.25317482 572.496379,7.35967586 572.412172,7.39488224 L571.725695,7.68189374 C571.639529,7.71791921 571.521368,7.68777415 571.461875,7.61468605 L570.553186,6.49833706 C570.493649,6.42519381 570.381323,6.40330594 570.298292,6.45178835 L569.701708,6.80014048 C569.620471,6.8475756 569.581259,6.95795671 569.614071,7.04653432 L570.115232,8.39947022 C570.148068,8.48811466 570.112952,8.60784666 570.040561,8.66398206 L569.450407,9.12161232 C569.376331,9.17905374 569.254496,9.1809855 569.178408,9.12601968 L568.016246,8.28647077 C567.940101,8.23146348 567.826067,8.23977197 567.758273,8.30833646 L567.271164,8.80098076 C567.204835,8.86806414 567.195221,8.984969 567.249601,9.0619653 L568.080193,10.2380081 C568.134613,10.3150625 568.131484,10.4399528 568.076083,10.5131545 L567.624435,11.1099136 C567.567745,11.1848184 567.450591,11.2185647 567.362913,11.1853441 L566.023713,10.6779327 C565.935969,10.644687 565.827852,10.682526 565.779914,10.7665 L565.435476,11.3698636 C565.388574,11.4520236 565.40925,11.5674987 565.481536,11.6276828 L566.585629,12.5469373 C566.65797,12.6071669 566.686781,12.7285861 566.6518,12.8137113 L566.366622,13.5076735 C566.330827,13.5947791 566.226192,13.6579776 566.133071,13.6488467 L564.710735,13.5093803 C564.617544,13.5002424 564.522852,13.5650984 564.498037,13.6587593 L564.319743,14.3317239 C564.295465,14.4233615 564.344895,14.5294471 564.430006,14.5686067 L565.729988,15.1667312 C565.815163,15.2059204 565.874086,15.3156963 565.862214,15.4071693 L565.765424,16.1528808 C565.753275,16.246482 565.668514,16.334988 565.57626,16.3505385 L564.167167,16.588056 C564.074843,16.6036181 564,16.6910467 564,16.7880115 L564,17.4847158 C564,17.579586 564.074975,17.6691314 564.167307,17.6846948 L565.577575,17.9224105 C565.669976,17.9379856 565.755078,18.02852 565.767034,18.1198773 L565.864506,18.8646459 C565.876741,18.9581287 565.817442,19.0657585 565.732202,19.1049777 L564.430241,19.7040126 C564.344936,19.7432614 564.294929,19.8473425 564.319743,19.9410034 L564.498037,20.613968 C564.522316,20.7056056 564.617686,20.772471 564.710895,20.7633313 L566.134578,20.6237327 C566.227858,20.6145862 566.333163,20.6797981 566.367973,20.7649621 L566.65176,21.4592406 C566.687381,21.5463859 566.657574,21.6658896 566.585308,21.7260581 L565.481502,22.6450729 C565.40918,22.7052868 565.387538,22.8188897 565.435476,22.9028637 L565.779914,23.5062272 C565.826816,23.5883873 565.935957,23.6280447 566.02354,23.5948605 L567.361274,23.0880041 C567.448922,23.0547949 567.567309,23.0903094 567.622814,23.1635236 L568.075302,23.7603841 C568.132098,23.8353016 568.134008,23.9585214 568.07966,24.0354735 L567.249544,25.210842 C567.195155,25.2878522 567.20337,25.403182 567.271164,25.4717465 L567.758273,25.9643908 C567.824603,26.0314742 567.940194,26.0411967 568.016325,25.9861994 L569.179154,25.1461688 C569.255343,25.0911299 569.37883,25.0942946 569.451209,25.1503256 L570.041263,25.6071052 C570.115326,25.6644398 570.148693,25.7829249 570.115846,25.8715995 L569.614136,27.2260172 C569.581264,27.3147587 569.618677,27.4241044 569.701708,27.4725868 L570.298292,27.8209389 C570.379529,27.868374 570.493707,27.8474628 570.553214,27.7743557 L571.46214,26.6577156 C571.521693,26.5845533 571.641748,26.5554142 571.725917,26.5907932 L572.412082,26.879212 C572.498209,26.9154141 572.560697,27.0212379 572.551669,27.1154173 L572.413769,28.5539156 C572.404734,28.6481661 572.468861,28.7439342 572.56147,28.7690305 L573.226873,28.9493509 C573.317481,28.9739051 573.422375,28.9239127 573.461094,28.8378348 L574.052498,27.5230799 C574.091247,27.4369371 574.19979,27.3773445 574.290235,27.3893521 L575.027568,27.4872413 C575.120117,27.4995283 575.207629,27.585253 575.223004,27.6785555 L575.457853,29.1036606 C575.47324,29.1970335 575.559687,29.2727273 575.655562,29.2727273 L576.344438,29.2727273 C576.438242,29.2727273 576.526782,29.1968999 576.54217,29.1035195 L576.777215,27.6772255 C576.792615,27.5837747 576.882132,27.4977056 576.972463,27.4856132 L577.708863,27.3870332 C577.801296,27.3746595 577.907716,27.4346326 577.946495,27.5208415 L578.538799,28.8375975 C578.577607,28.9238714 578.680518,28.9744472 578.773127,28.9493509 L579.43853,28.7690305 C579.529138,28.7444763 579.595252,28.6480225 579.586215,28.5537538 L579.448185,27.1138923 C579.439141,27.0195525 579.503621,26.9130514 579.587828,26.877845 L580.274305,26.5908335 C580.360471,26.5548081 580.478632,26.5849531 580.538125,26.6580412 L581.446814,27.7743902 C581.506351,27.8475335 581.618677,27.8694213 581.701708,27.8209389 L582.298292,27.4725868 C582.379529,27.4251517 582.418741,27.3147706 582.385929,27.226193 L581.884768,25.8732571 C581.851932,25.7846126 581.887048,25.6648806 581.959439,25.6087452 L582.549593,25.1511149 C582.623669,25.0936735 582.745504,25.0917418 582.821592,25.1467076 L583.983754,25.9862565 C584.059899,26.0412638 584.173933,26.0329553 584.241727,25.9643908 L584.728836,25.4717465 C584.795165,25.4046631 584.804779,25.2877583 584.750399,25.210762 L583.919807,24.0347191 C583.865387,23.9576647 583.868516,23.8327744 583.923917,23.7595728 L584.375565,23.1628137 C584.432255,23.0879089 584.549409,23.0541626 584.637087,23.0873831 L585.976287,23.5947946 C586.064031,23.6280402 586.172148,23.5902013 586.220086,23.5062272 L586.564524,22.9028637 C586.611426,22.8207036 586.59075,22.7052286 586.518464,22.6450444 L585.414371,21.72579 C585.34203,21.6655604 585.313219,21.5441411 585.3482,21.459016 L585.633378,20.7650538 C585.669173,20.6779481 585.773808,20.6147496 585.866929,20.6238806 L587.289265,20.763347 C587.382456,20.7724849 587.477148,20.7076288 587.501963,20.613968 L587.680257,19.9410034 C587.704535,19.8493658 587.655105,19.7432802 587.569994,19.7041206 L586.270012,19.1059961 C586.184837,19.0668069 586.125914,18.9570309 586.137786,18.8655579 L586.234576,18.1198465 C586.246725,18.0262453 586.331486,17.9377392 586.42374,17.9221888 L587.832833,17.6846713 C587.925157,17.6691091 588,17.5816806 588,17.4847158 L588,16.7880115 C588,16.6931413 587.925025,16.6035959 587.832693,16.5880325 L586.422425,16.3503168 C586.330024,16.3347417 586.244922,16.2442073 586.232966,16.1528499 L586.135494,15.4080814 C586.123259,15.3145986 586.182558,15.2069688 586.267798,15.1677496 L587.569759,14.5687147 C587.655064,14.5294659 587.705071,14.4253847 587.680257,14.3317239 L587.501963,13.6587593 C587.477684,13.5671217 587.382314,13.5002563 587.289105,13.5093959 L585.865422,13.6489945 C585.772142,13.658141 585.666837,13.5929291 585.632027,13.5077652 L585.34824,12.8134867 C585.312619,12.7263414 585.342426,12.6068377 585.414692,12.5466692 L586.518498,11.6276544 C586.59082,11.5674405 586.612462,11.4538376 586.564524,11.3698636 L586.220086,10.7665 C586.173184,10.68434 586.064043,10.6446826 585.97646,10.6778668 L584.638726,11.1847231 C584.551078,11.2179324 584.432691,11.1824178 584.377186,11.1092037 L583.924698,10.5123432 C583.867902,10.4374257 583.865992,10.3142059 583.92034,10.2372538 L584.750456,9.0618853 C584.804845,8.98487508 584.79663,8.86954525 584.728836,8.80098076 L584.241727,8.30833646 C584.175397,8.24125308 584.059806,8.23153056 583.983675,8.28652792 L582.820846,9.12655851 C582.744657,9.18159736 582.62117,9.17843269 582.548791,9.12240164 L581.958737,8.66562209 C581.884674,8.60828746 581.851307,8.48980242 581.884154,8.4011278 L582.385864,7.04671011 L582.385864,7.04671011 Z M583.917381,14.9123147 C583.360426,12.8850095 582.047631,11.0686919 580.103561,9.93352759 C578.170487,8.80478449 575.972802,8.55945138 573.967545,9.07367357 C573.581201,9.17274647 573.807881,9.11848586 573.807881,9.11848586 C573.269585,9.30411136 573.055408,9.86457759 573.326507,10.3647957 C573.326507,10.3647957 573.170153,10.0762988 573.338624,10.3871529 C574.142544,11.8705055 575.751716,14.8396677 575.751716,14.8396677 C576.115677,15.511229 577.024427,16.0427424 577.782552,16.0268135 C577.782552,16.0268135 581.347829,15.9519033 583.131225,15.9144323 C583.462562,15.9074706 583.131225,15.9144323 583.131225,15.9144323 C583.680203,15.9028977 584.036664,15.4352868 583.917381,14.9123147 C583.917381,14.9123147 584.005945,15.2346873 583.917381,14.9123147 L583.917381,14.9123147 L583.917381,14.9123147 Z M573.785182,25.1566799 C575.79025,25.717991 578.005784,25.5153913 579.969147,24.4147141 C581.921404,23.3202631 583.261224,21.5414289 583.858186,19.5382116 C583.9732,19.1522607 583.902439,19.3767177 583.902439,19.3767177 C584.022358,18.8144607 583.657652,18.340127 583.094073,18.3175136 C583.094073,18.3175136 583.419113,18.3305557 583.068883,18.3165029 C581.397639,18.2494447 578.052381,18.1152172 578.052381,18.1152172 C577.295755,18.0848578 576.377237,18.5989111 576.000274,19.2643396 L573.340751,23.9590266 C573.176,24.249851 573.340751,23.9590266 573.340751,23.9590266 C573.067783,24.4408802 573.280509,24.9907368 573.785182,25.1566799 C573.785182,25.1566799 573.466346,25.0674229 573.785182,25.1566799 L573.785182,25.1566799 L573.785182,25.1566799 Z M570.235972,23.0895894 C568.75279,21.6140733 567.818508,19.5722609 567.779331,17.302278 C567.740375,15.0451356 568.593671,12.982215 570.010535,11.4577473 C570.283516,11.164035 570.126695,11.3382407 570.126695,11.3382407 C570.548193,10.9520796 571.136716,11.0343464 571.437869,11.5166599 C571.437869,11.5166599 571.264181,11.2384893 571.451329,11.5382169 L574.13194,15.8313607 C574.53625,16.4788845 574.555328,17.5404104 574.174006,18.2032938 C574.174006,18.2032938 572.380744,21.3206724 571.483732,22.8800247 C571.317076,23.1697368 571.483732,22.8800247 571.483732,22.8800247 C571.207607,23.3600354 570.630405,23.4486441 570.235972,23.0895894 C570.235972,23.0895894 570.47182,23.324219 570.235972,23.0895894 L570.235972,23.0895894 L570.235972,23.0895894 Z" id="Gear" sketch:type="MSShapeGroup"></path>
            </g>
        </g>
    </g>
</svg>