<?xml version="1.0" encoding="UTF-8" standalone="no"?>
<svg width="26px" height="24px" viewBox="0 0 26 24" version="1.1" xmlns="http://www.w3.org/2000/svg" xmlns:xlink="http://www.w3.org/1999/xlink" xmlns:sketch="http://www.bohemiancoding.com/sketch/ns">
    <!-- Generator: Sketch 3.3.3 (12072) - http://www.bohemiancoding.com/sketch -->
    <title>home</title>
    <desc>Created with Sketch.</desc>
    <defs></defs>
    <g id="Page-1" stroke="none" stroke-width="1" fill="none" fill-rule="evenodd" sketch:type="MSPage">
        <g id="primary-icons" sketch:type="MSArtboardGroup" transform="translate(-558.000000, -188.000000)" fill="#000000" opacity="0.8">
            <g id="Group" sketch:type="MSLayerGroup" transform="translate(112.000000, 183.000000)">
                <path d="M471.83042,15.9777327 L459.332386,5.14182422 C459.139422,4.94407557 458.773427,4.95484011 458.594417,5.16335331 L446.169742,15.9777327 C445.964019,16.1583378 445.942092,16.4685161 446.121501,16.6738398 C446.300511,16.8795622 446.611885,16.90149 446.816013,16.7236757 L448.795493,14.9949697 L448.795493,28.178346 C448.795493,28.4506491 449.016365,28.6719203 449.289067,28.6719203 L455.747395,28.6719203 C456.018502,28.6719203 456.239374,28.4506491 456.239374,28.178346 L456.239374,21.6327062 L461.716932,21.6327062 L461.716932,28.178346 C461.716932,28.4506491 461.939399,28.6719203 462.212101,28.6719203 L468.668834,28.6719203 C468.944725,28.6719203 469.162408,28.4506491 469.162408,28.178346 L469.162408,14.9921789 L471.182554,16.7220809 C471.275847,16.803413 471.391067,16.8420856 471.506288,16.8420856 C471.645031,16.8420856 471.783774,16.7846747 471.878661,16.6738398 C472.057671,16.4685161 472.036142,16.156743 471.83042,15.9777327 L471.83042,15.9777327 Z M468.178449,14.3347444 L468.178449,27.6875626 L462.704081,27.6875626 L462.704081,21.1391319 C462.704081,20.8680249 462.484404,20.6435642 462.213696,20.6435642 L455.750584,20.6435642 C455.476288,20.6435642 455.255415,20.8680249 455.255415,21.1391319 L455.255415,27.6875626 L449.785831,27.6875626 L449.785831,14.3347444 C449.785831,14.2757387 449.770282,14.2195239 449.751544,14.1680933 L458.977555,6.14133202 L468.209547,14.1664985 C468.189213,14.2179291 468.178449,14.274144 468.178449,14.3347444 L468.178449,14.3347444 Z" id="home" sketch:type="MSShapeGroup"></path>
            </g>
        </g>
    </g>
</svg>