<?xml version="1.0" encoding="UTF-8" standalone="no"?>
<svg width="24px" height="18px" viewBox="0 0 24 18" version="1.1" xmlns="http://www.w3.org/2000/svg" xmlns:xlink="http://www.w3.org/1999/xlink" xmlns:sketch="http://www.bohemiancoding.com/sketch/ns">
    <!-- Generator: Sketch 3.3.3 (12072) - http://www.bohemiancoding.com/sketch -->
    <title>menu</title>
    <desc>Created with Sketch.</desc>
    <defs></defs>
    <g id="Page-1" stroke="none" stroke-width="1" fill="none" fill-rule="evenodd" sketch:type="MSPage">
        <g id="primary-icons" sketch:type="MSArtboardGroup" transform="translate(-790.000000, -191.000000)" fill="#000000">
            <g id="Group" sketch:type="MSLayerGroup" transform="translate(112.000000, 183.000000)">
                <g id="menu" transform="translate(678.000000, 8.000000)" sketch:type="MSShapeGroup">
                    <path d="M0.675,1.79667097 L22.7274,1.79667097 C23.1,1.79667097 23.4024,1.49752258 23.4024,1.12892903 C23.4024,0.760335484 23.1,0.461187097 22.7274,0.461187097 L0.675,0.461187097 C0.3024,0.461187097 0,0.760335484 0,1.12892903 C0,1.49752258 0.3024,1.79667097 0.675,1.79667097 L0.675,1.79667097 Z" id="Fill-1"></path>
                    <path d="M22.725,8.53225806 L0.675,8.53225806 C0.3024,8.53225806 0,8.83140645 0,9.2 C0,9.56859355 0.3024,9.86774194 0.675,9.86774194 L22.7274,9.86774194 C23.1,9.86774194 23.4024,9.56859355 23.4024,9.2 C23.4024,8.83140645 23.0976,8.53225806 22.725,8.53225806 L22.725,8.53225806 Z" id="Fill-2"></path>
                    <path d="M22.725,16.603329 L0.675,16.603329 C0.3024,16.603329 0,16.9024774 0,17.271071 C0,17.6396645 0.3024,17.9388129 0.675,17.9388129 L22.7274,17.9388129 C23.1,17.9388129 23.4024,17.6396645 23.4024,17.271071 C23.4024,16.9024774 23.0976,16.603329 22.725,16.603329 L22.725,16.603329 Z" id="Fill-3"></path>
                </g>
            </g>
        </g>
    </g>
</svg>