<?xml version="1.0" encoding="UTF-8" standalone="no"?>
<svg width="23px" height="19px" viewBox="0 0 23 19" version="1.1" xmlns="http://www.w3.org/2000/svg" xmlns:xlink="http://www.w3.org/1999/xlink" xmlns:sketch="http://www.bohemiancoding.com/sketch/ns">
    <!-- Generator: Sketch 3.3.3 (12072) - http://www.bohemiancoding.com/sketch -->
    <title>toc</title>
    <desc>Created with Sketch.</desc>
    <defs></defs>
    <g id="Page-1" stroke="none" stroke-width="1" fill="none" fill-rule="evenodd" sketch:type="MSPage">
        <g id="primary-icons" sketch:type="MSArtboardGroup" transform="translate(-1160.000000, -191.000000)" fill="#000000">
            <g id="Group" sketch:type="MSLayerGroup" transform="translate(242.000000, 183.000000)">
                <g id="toc" transform="translate(918.000000, 8.000000)" sketch:type="MSShapeGroup">
                    <path d="M6.24245339,1.79667097 L22.5023037,1.79667097 C22.777032,1.79667097 23,1.49752258 23,1.12892903 C23,0.760335484 22.777032,0.461187097 22.5023037,0.461187097 L6.24245339,0.461187097 C5.967725,0.461187097 5.74475704,0.760335484 5.74475704,1.12892903 C5.74475704,1.49752258 5.967725,1.79667097 6.24245339,1.79667097 L6.24245339,1.79667097 Z" id="Fill-1"></path>
                    <path d="M22.5005341,8.53225806 L6.24245339,8.53225806 C5.967725,8.53225806 5.74475704,8.83140645 5.74475704,9.2 C5.74475704,9.56859355 5.967725,9.86774194 6.24245339,9.86774194 L22.5023037,9.86774194 C22.777032,9.86774194 23,9.56859355 23,9.2 C23,8.83140645 22.7752624,8.53225806 22.5005341,8.53225806 L22.5005341,8.53225806 Z" id="Fill-2"></path>
                    <path d="M22.5005341,16.603329 L6.24245339,16.603329 C5.967725,16.603329 5.74475704,16.9024774 5.74475704,17.271071 C5.74475704,17.6396645 5.967725,17.9388129 6.24245339,17.9388129 L22.5023037,17.9388129 C22.777032,17.9388129 23,17.6396645 23,17.271071 C23,16.9024774 22.7752624,16.603329 22.5005341,16.603329 L22.5005341,16.603329 Z" id="Fill-3"></path>
                    <circle id="Oval-8" opacity="0.7" cx="1.5" cy="1.5" r="1.5"></circle>
                    <circle id="Oval-8-Copy" opacity="0.7" cx="1.5" cy="9" r="1.5"></circle>
                    <circle id="Oval-8-Copy-2" opacity="0.7" cx="1.5" cy="17" r="1.5"></circle>
                </g>
            </g>
        </g>
    </g>
</svg>