<?xml version="1.0" encoding="UTF-8" standalone="no"?>
<svg width="19px" height="25px" viewBox="0 0 19 25" version="1.1" xmlns="http://www.w3.org/2000/svg" xmlns:xlink="http://www.w3.org/1999/xlink" xmlns:sketch="http://www.bohemiancoding.com/sketch/ns">
    <!-- Generator: Sketch 3.3.3 (12072) - http://www.bohemiancoding.com/sketch -->
    <title>Trash</title>
    <desc>Created with Sketch.</desc>
    <defs></defs>
    <g id="Page-1" stroke="none" stroke-width="1" fill="none" fill-rule="evenodd" sketch:type="MSPage">
        <g id="primary-icons" sketch:type="MSArtboardGroup" transform="translate(-447.000000, -188.000000)" fill="#000000" opacity="0.8">
            <g id="Group" sketch:type="MSLayerGroup" transform="translate(112.000000, 183.000000)">
                <path d="M340.537435,8.6652023 L340.81824,6.54487429 C340.857642,6.24735356 341.14151,5.99255583 341.438309,5.99255583 L347.261367,5.99255583 C347.551115,5.99255583 347.833318,6.24886907 347.867914,6.53840924 L348.121267,8.65873725 C348.15377,8.93076458 348.393854,9.12409997 348.657508,9.09056394 C348.921163,9.0570279 349.108547,8.80931985 349.076043,8.53729253 L348.822691,6.41696452 C348.728543,5.62903165 348.035975,5 347.261367,5 L341.438309,5 C340.661165,5 339.969694,5.62065959 339.865092,6.41049947 L339.584286,8.53082748 C339.548322,8.8023908 339.732536,9.05261719 339.995741,9.08972377 C340.258946,9.12683035 340.50147,8.93676561 340.537435,8.6652023 Z M336.323184,8.92909739 L337.124339,28.5312655 C337.157549,29.3438339 337.818902,30 338.603345,30 L350.156289,30 C350.945004,30 351.601885,29.3486367 351.635271,28.5312522 L352.435914,8.92908408 C352.4471,8.65524041 352.241006,8.42389102 351.975591,8.41235076 C351.710176,8.4008105 351.485948,8.61344943 351.474763,8.8872931 L350.674119,28.4894612 C350.662418,28.7759291 350.428942,29.0074442 350.156289,29.0074442 L338.603345,29.0074442 C338.335079,29.0074442 338.097007,28.7712389 338.08549,28.4894479 L337.284335,8.88727979 C337.273143,8.61343643 337.048909,8.40080371 336.783494,8.41235132 C336.51808,8.42389893 336.311992,8.65525403 336.323184,8.92909739 Z M335.481003,9.28039702 L353.518997,9.28039702 C353.784648,9.28039702 354,9.05820583 354,8.78411911 C354,8.51003238 353.784648,8.28784119 353.518997,8.28784119 L335.481003,8.28784119 C335.215352,8.28784119 335,8.51003238 335,8.78411911 C335,9.05820583 335.215352,9.28039702 335.481003,9.28039702 Z M344.019267,11.3275434 L344.019267,26.7126591 C344.019267,26.9867458 344.234619,27.208937 344.500269,27.208937 C344.76592,27.208937 344.981272,26.9867458 344.981272,26.7126591 L344.981272,11.3275434 C344.981272,11.0534567 344.76592,10.8312655 344.500269,10.8312655 C344.234619,10.8312655 344.019267,11.0534567 344.019267,11.3275434 Z M347.747693,11.3593734 L346.845813,26.6199193 C346.829645,26.8934979 347.031491,27.1288003 347.296649,27.145482 C347.561807,27.1621636 347.789867,26.9539074 347.806035,26.6803288 L348.707915,11.4197829 C348.724083,11.1462043 348.522237,10.9109019 348.257079,10.8942203 C347.991921,10.8775386 347.763861,11.0857948 347.747693,11.3593734 Z M340.171783,11.4176622 L341.013537,26.7402428 C341.02857,27.0138904 341.255764,27.2231518 341.520988,27.2076415 C341.786213,27.1921311 341.989033,26.9577223 341.974,26.6840748 L341.132246,11.3614941 C341.117213,11.0878466 340.890019,10.8785851 340.624795,10.8940955 C340.35957,10.9096059 340.15675,11.1440147 340.171783,11.4176622 Z" id="Trash" sketch:type="MSShapeGroup"></path>
            </g>
        </g>
    </g>
</svg>