<?xml version="1.0" encoding="utf-8"?>
<!-- Generator: Adobe Illustrator 17.1.0, SVG Export Plug-In . SVG Version: 6.00 Build 0)  -->
<!DOCTYPE svg PUBLIC "-//W3C//DTD SVG 1.1//EN" "http://www.w3.org/Graphics/SVG/1.1/DTD/svg11.dtd">
<svg version="1.1" id="Layer_1" xmlns="http://www.w3.org/2000/svg" xmlns:xlink="http://www.w3.org/1999/xlink" x="0px" y="0px"
	 viewBox="0 0 612 792" enable-background="new 0 0 612 792" xml:space="preserve">
<g transform="matrix(1 0 0 -1 0 1638)" display="none">
	<path display="inline" d="M379.9,1382.2c20.4,0,40.8-7.7,58.6-23c7.6-7.7,15.3-17.8,20.4-28c5.1-12.8,7.6-23,7.6-38.2
		c0-35.7-15.3-66.3-45.9-91.8c-12.8-10.2-33.1-30.6-66.3-56.1s-48.5-38.2-48.5-38.2l-117.3,96.9c-12.8,12.8-25.5,25.5-33.1,40.8
		s-12.8,30.6-12.8,45.9c0,12.8,2.6,28,5.1,38.2c5.1,17.8,17.8,33.2,33.1,43.3c15.3,10.2,30.6,15.3,48.4,15.3
		c30.6,0,56.1-12.8,73.9-38.2C326.4,1369.5,351.9,1382.2,379.9,1382.2z"/>
</g>
<path display="none" d="M385.1,278.7c-28.1,0-79.1,25.5-79.1,58.6c0-30.6-48.4-58.7-79.1-58.7c-35.7,0-66.3,20.4-81.6,53.6
	c-30.6,63.8,28.1,112.2,71.4,150.4c22.9,15.3,89.2,71.4,89.2,71.4s99.4-81.6,117.3-99.5c30.6-28.1,58.6-63.8,48.4-107.1
	C461.6,306.8,420.8,278.7,385.1,278.7z"/>
<path d="M382.5,243c-51,0-76.5,51-76.5,51s-25.5-51-76.5-51c-63.8,0-102,51-102,102c0,102,127.5,127.5,178.5,204
	c51-76.5,178.5-102,178.5-204C484.5,294,446.2,243,382.5,243z"/>
</svg>
