<?xml version="1.0" encoding="utf-8"?>
<!-- Generator: Adobe Illustrator 17.1.0, SVG Export Plug-In . SVG Version: 6.00 Build 0)  -->
<!DOCTYPE svg PUBLIC "-//W3C//DTD SVG 1.1//EN" "http://www.w3.org/Graphics/SVG/1.1/DTD/svg11.dtd">
<svg version="1.1" id="Layer_1" xmlns="http://www.w3.org/2000/svg" xmlns:xlink="http://www.w3.org/1999/xlink" x="0px" y="0px"
	 viewBox="0 0 612 792" enable-background="new 0 0 612 792" xml:space="preserve">
<path d="M418.2,508.2C443.7,477.6,459,439.4,459,396c0-99.4-79.1-178.5-178.5-178.5S102,296.6,102,396s79.1,178.5,178.5,178.5
	c30.6,0,58.6-7.6,81.6-20.4l71.4,71.4c35.7,35.7,63.8,38.2,102,0L418.2,508.2z M153,396c0-71.4,56.1-127.5,127.5-127.5
	S408,324.6,408,396s-56.1,127.5-127.5,127.5S153,464.9,153,396z"/>
</svg>
