<?xml version="1.0" encoding="utf-8"?>
<!-- Generator: Adobe Illustrator 17.1.0, SVG Export Plug-In . SVG Version: 6.00 Build 0)  -->
<!DOCTYPE svg PUBLIC "-//W3C//DTD SVG 1.1//EN" "http://www.w3.org/Graphics/SVG/1.1/DTD/svg11.dtd">
<svg version="1.1" id="Layer_1" xmlns="http://www.w3.org/2000/svg" xmlns:xlink="http://www.w3.org/1999/xlink" x="0px" y="0px"
	 viewBox="0 0 612 792" enable-background="new 0 0 612 792" xml:space="preserve">
<g transform="matrix(1 0 0 -1 0 1638)">
	<path d="M568.6,1387.3c0-5.1,0-7.7-2.5-7.7c-17.9-2.5-30.6-12.8-40.8-28c-2.6-5.1-5.1-10.2-7.7-17.8l-117.3-257.5
		c-2.6-5.1-5.1-7.7-5.1-7.7s-2.6-2.5-5.1-2.5c-5.1,0-10.2,2.5-12.8,10.2l-66.3,140.2l-71.4-140.2c-2.6-7.7-7.7-10.2-12.8-10.2
		s-10.2,2.5-12.8,10.2l-109.7,257.5c-7.6,20.4-15.3,30.6-20.4,35.7c-5.1,5.1-12.8,7.7-25.5,10.2c-2.5,2.5-2.5,5.1-2.5,7.7
		c0,5.1,0,7.7,2.5,7.7c7.6,0,25.5,0,53.6,0s45.9,0,56.1,0c2.6-2.5,2.6-5.1,2.6-7.7c0-5.1,0-7.7-2.6-7.7c-15.3-2.5-25.5-5.1-28-10.2
		c-2.6-5.1,0-15.3,7.6-30.6l91.8-209.1h2.6l56.1,112.2l-43.4,91.8c-7.6,17.8-15.3,30.6-20.4,35.7c-5.1,5.1-12.8,7.7-22.9,10.2
		c-2.6,2.5-2.6,5.1-2.6,7.7c0,5.1,0,7.7,2.6,7.7c7.7,0,22.9,0,45.9,0s38.2,0,45.9,0c2.6-2.5,2.6-5.1,2.6-7.7c0-5.1,0-7.7-2.6-7.7
		c-10.2-2.5-15.3-5.1-15.3-10.2c0-5.1,2.5-15.3,10.2-30.6l25.5-48.5l25.5,48.5c7.6,15.3,12.8,23,12.8,28s0,7.7-2.6,10.2
		c-2.6,2.5-7.6,2.5-12.8,2.5c0,2.5-2.6,5.1-2.6,7.7c0,5.1,0,7.7,2.6,7.7c7.6,0,20.4,0,38.2,0s30.6,0,38.2,0c2.6-2.5,2.6-5.1,2.6-7.7
		c0-5.1,0-7.7-2.6-7.7c-12.8-2.5-20.4-5.1-28.1-12.8c-7.6-7.7-15.3-17.8-20.4-33.2l-33.1-71.4l63.8-132.6h2.5l94.4,206.5
		c7.6,12.8,7.6,23,5.1,30.6c-2.5,7.7-12.8,10.2-28,12.8c-2.6,2.5-2.6,5.1-2.6,7.7s0,7.7,2.6,7.7c10.2,0,25.5,0,48.4,0
		c23,0,38.2,0,45.9,0C568.6,1392.5,568.6,1389.9,568.6,1387.3z"/>
</g>
</svg>
